<?xml version="1.0" encoding="iso-8859-1"?>
<!-- Generator: Adobe Illustrator 18.0.0, SVG Export Plug-In . SVG Version: 6.00 Build 0)  -->
<!DOCTYPE svg PUBLIC "-//W3C//DTD SVG 1.1//EN" "http://www.w3.org/Graphics/SVG/1.1/DTD/svg11.dtd">
<svg version="1.1" id="Capa_1" xmlns="http://www.w3.org/2000/svg" xmlns:xlink="http://www.w3.org/1999/xlink" x="0px" y="0px"
	 viewBox="0 0 460 460" style="enable-background:new 0 0 460 460;" xml:space="preserve">
<g id="XMLID_1399_">
	<g id="XMLID_997_">
		<path id="XMLID_481_" style="fill:#F9B65F;" d="M275.632,329.777v-41.781c0-25.202-20.43-45.632-45.632-45.632
			s-45.632,20.43-45.632,45.632v41.781h-35.801v-44.872c0-44.974,36.459-81.433,81.433-81.433s81.433,36.459,81.433,81.433v44.872
			H275.632z"/>
	</g>
	<g id="XMLID_996_">
		<path id="XMLID_2344_" style="fill:#DE3E30;" d="M314.07,460H145.93c-16.534,0-29.937-13.403-29.937-29.937V329.777h228.013
			v100.287C344.007,446.597,330.603,460,314.07,460z"/>
	</g>
	<path id="XMLID_2522_" style="opacity:0.49;fill:#D0D5D9;" d="M320.879,329.777v75.388c0,16.695-13.534,30.229-30.229,30.229
		H123.094c-2.306,0-4.548-0.267-6.706-0.756c2.328,14.38,14.796,25.363,29.834,25.363h167.555c16.695,0,30.229-13.534,30.229-30.229
		v-99.995H320.879z"/>
	<g id="XMLID_995_">
		<path id="XMLID_3014_" style="fill:#FFFFFF;" d="M230,417.627c-4.183,0-7.573-3.391-7.573-7.573v-32.573
			c0-4.183,3.39-7.573,7.573-7.573s7.573,3.391,7.573,7.573v32.573C237.573,414.237,234.183,417.627,230,417.627z"/>
	</g>
	<g id="XMLID_1000_">
		<path id="XMLID_3013_" style="fill:#B1B2B2;" d="M319.251,178.546c-2.585,0-5.168-0.986-7.14-2.957
			c-21.933-21.933-51.094-34.012-82.111-34.012s-60.178,12.079-82.111,34.012c-3.944,3.943-10.336,3.943-14.281,0
			c-3.943-3.943-3.943-10.337,0-14.281c25.747-25.747,59.98-39.926,96.392-39.926s70.645,14.18,96.392,39.926
			c3.943,3.943,3.943,10.337,0,14.281C324.42,177.56,321.836,178.546,319.251,178.546z"/>
	</g>
	<g id="XMLID_999_">
		<path id="XMLID_3012_" style="fill:#B1B2B2;" d="M359.642,138.155c-2.585,0-5.168-0.986-7.14-2.957
			c-67.547-67.547-177.456-67.547-245.003,0c-3.943,3.944-10.337,3.943-14.281,0c-3.943-3.943-3.943-10.337,0-14.281
			c75.422-75.42,198.142-75.42,273.564,0c3.943,3.943,3.943,10.337,0,14.281C364.81,137.169,362.226,138.155,359.642,138.155z"/>
	</g>
	<g id="XMLID_23_">
		<path id="XMLID_3011_" style="fill:#B1B2B2;" d="M405.081,92.716c-2.585,0-5.168-0.986-7.14-2.957
			c-92.602-92.603-243.279-92.603-335.882,0c-3.944,3.943-10.336,3.943-14.281,0c-3.943-3.943-3.943-10.337,0-14.281
			C96.452,26.806,161.166,0,230,0s133.548,26.806,182.221,75.478c3.943,3.943,3.943,10.337,0,14.281
			C410.249,91.73,407.666,92.716,405.081,92.716z"/>
	</g>
</g>
<g>
</g>
<g>
</g>
<g>
</g>
<g>
</g>
<g>
</g>
<g>
</g>
<g>
</g>
<g>
</g>
<g>
</g>
<g>
</g>
<g>
</g>
<g>
</g>
<g>
</g>
<g>
</g>
<g>
</g>
</svg>
